<svg width="24" height="24" viewBox="0 0 24 24" fill="none" xmlns="http://www.w3.org/2000/svg">
<path d="M14.1083 9.8916L9.8916 14.1083C9.34994 13.5666 9.0166 12.8249 9.0166 11.9999C9.0166 10.3499 10.3499 9.0166 11.9999 9.0166C12.8249 9.0166 13.5666 9.34994 14.1083 9.8916Z" stroke="#151515" stroke-width="1.5" stroke-linecap="round" stroke-linejoin="round"/>
<path d="M16.85 6.8084C15.3916 5.7084 13.725 5.1084 12 5.1084C9.0583 5.1084 4 8 2 12C3.5 14.5 5.83329 16.0917 6.66663 16.8084" stroke="#151515" stroke-width="1.5" stroke-linecap="round" stroke-linejoin="round"/>
<path d="M9.0166 18.2751C9.9666 18.6751 10.9749 18.8917 11.9999 18.8917C14.9416 18.8917 19.999 17.5 21.999 12C21.724 11.5667 21.499 10 18.999 8" stroke="#151515" stroke-width="1.5" stroke-linecap="round" stroke-linejoin="round"/>
<path d="M14.9252 12.5833C14.7085 13.7583 13.7502 14.7166 12.5752 14.9333" stroke="#151515" stroke-width="1.5" stroke-linecap="round" stroke-linejoin="round"/>
<path d="M9.89199 14.1084L3.66699 20.3334" stroke="#151515" stroke-width="1.5" stroke-linecap="square" stroke-linejoin="round"/>
<path d="M20.3334 3.66675L14.1084 9.89175" stroke="#151515" stroke-width="1.5" stroke-linecap="square" stroke-linejoin="round"/>
</svg>
