<svg width="24" height="24" viewBox="0 0 24 24" fill="none" xmlns="http://www.w3.org/2000/svg">
<path d="M14.1083 9.89167L9.89167 14.1083C9.35 13.5667 9.01667 12.825 9.01667 12C9.01667 10.35 10.35 9.01667 12 9.01667C12.825 9.01667 13.5667 9.35 14.1083 9.89167Z" stroke="#151515" stroke-width="1.5" stroke-linecap="round" stroke-linejoin="round"/>
<path d="M16.85 6.80833C15.3917 5.70833 13.725 5.10833 12 5.10833C9.05834 5.10833 4.00004 7.99994 2.00004 11.9999C3.50004 14.4999 5.83333 16.0917 6.66667 16.8083" stroke="#151515" stroke-width="1.5" stroke-linecap="round" stroke-linejoin="round"/>
<path d="M9.01667 18.275C9.96667 18.675 10.975 18.8917 12 18.8917C14.9417 18.8917 19.9991 17.4999 21.9991 11.9999C21.7241 11.5666 21.4991 9.99994 18.9991 7.99994" stroke="#151515" stroke-width="1.5" stroke-linecap="round" stroke-linejoin="round"/>
<path d="M14.925 12.5833C14.7083 13.7583 13.75 14.7167 12.575 14.9333" stroke="#151515" stroke-width="1.5" stroke-linecap="round" stroke-linejoin="round"/>
</svg>
