<svg data-svg="emoji" xmlns="http://www.w3.org/2000/svg" viewBox="0 0 20 20"><circle class="gl-rating-empty" fill="#dcdce6" cx="10" cy="10" r="10"/><circle class="gl-rating-full" fill="#FFD885" cx="10" cy="10" r="10"/><path class="gl-rating-half" fill="#dcdce6" opacity=".001" d="M10 0c5.523 0 10 4.477 10 10s-4.477 10-10 10"/><path class="gl-rating-face" fill="#393939" d="M14.792 12.4c.33 0 .596.194.723.453a.773.773 0 01-.072.815A6.779 6.779 0 0110 16.4a6.779 6.779 0 01-5.443-2.732.776.776 0 01-.044-.868.772.772 0 01.695-.4zm-1.115-6.398a1.594 1.594 0 011.054.467 1.598 1.598 0 010 2.262 1.6 1.6 0 11-1.054-2.73zm-7.354 0a1.596 1.596 0 011.418.724 1.6 1.6 0 11-1.418-.724z"/></svg>