<svg data-svg="outline" xmlns="http://www.w3.org/2000/svg" viewBox="0 0 20 20"><path class="gl-rating-full" fill="none" stroke="currentColor" stroke-width="1.5" d="M10.002 8.575c.466 0 .81.132 1.076.363.438.381.692.965.959 1.557l.816 1.627c.327.521.806.937 1.315 1.36.744.621 1.566 1.241 1.566 2.524 0 .659-.212 1.233-.602 1.636-.378.391-.916.61-1.544.61-.701 0-1.222-.208-1.711-.392-.674-.26-1.218-.435-1.874-.435s-1.201.179-1.782.401-1.096.426-1.797.426c-.631 0-1.171-.219-1.55-.61-.39-.403-.603-.977-.603-1.636 0-1.273.816-1.894 1.514-2.481.545-.455 1.045-.892 1.381-1.431.257-.397.467-.843.658-1.277.342-.758.63-1.422 1.084-1.846.275-.257.621-.395 1.096-.395zm6.951-1.782c.349 0 .629.23.838.544.297.446.459 1.074.459 1.783s-.162 1.335-.457 1.779c-.21.314-.491.541-.84.541s-.635-.226-.846-.541c-.297-.443-.458-1.069-.458-1.779s.163-1.337.46-1.783c.211-.315.493-.544.844-.544zm-13.904 0c.35 0 .632.23.843.546.298.446.461 1.072.461 1.78s-.163 1.333-.459 1.777c-.211.316-.495.544-.845.544s-.631-.227-.84-.541c-.296-.443-.457-1.069-.457-1.779s.163-1.337.46-1.783c.209-.315.49-.544.838-.544zm9.754-5.042c.351 0 .635.227.846.543.296.442.458 1.066.458 1.777s-.163 1.332-.46 1.776c-.211.315-.494.544-.844.544s-.633-.229-.844-.544c-.297-.444-.46-1.069-.46-1.776 0-.712.161-1.337.457-1.78.211-.315.495-.54.847-.54zm-5.607 0c.352 0 .636.225.847.54.296.443.457 1.068.457 1.78s-.162 1.334-.459 1.778c-.211.315-.494.542-.845.542s-.632-.231-.843-.547C6.054 5.4 5.89 4.776 5.89 4.07s.163-1.333.459-1.775c.212-.317.496-.545.845-.545z"/><path class="gl-rating-half" fill="none" d="M10.002 7.825v10.349c-.483 0-.888.12-1.307.273l-.573.214c-.49.179-1.02.339-1.699.339-1.716 0-2.903-1.254-2.903-2.995 0-1.538.921-2.331 1.783-3.056.471-.393.928-.773 1.226-1.254.179-.275.332-.576.473-.881l.339-.749c.544-1.175 1.171-2.24 2.661-2.24zM3.048 6.042c1.173 0 2.054 1.322 2.054 3.077 0 1.762-.881 3.07-2.054 3.07S1 10.881 1 9.119c0-1.755.875-3.077 2.048-3.077zM7.194 1c1.18 0 2.055 1.301 2.055 3.07 0 1.755-.875 3.07-2.055 3.07-1.166 0-2.054-1.315-2.054-3.07C5.14 2.301 6.028 1 7.194 1z"/></svg>
