<svg data-svg="solid" xmlns="http://www.w3.org/2000/svg" viewBox="0 0 20 20"><path fill="#000" d="M15 17h-2v-1h-2v-1H9v1H7v1H5v1H2v-2h1v-2h1v-2h1v-2H4V9H3V8H2V6h5V5h1V3h1V2h2v1h1v2h1v1h5v2h-1v1h-1v1h-1v2h1v2.012h1V16h1v2h-3z"/><path class="gl-rating-full" fill="currentColor" d="M11 3v2h1v2h5v1h-1v1h-1v1h-1v2h1v2.012h1V16h1v1h-2v-1h-2v-1h-2v-1H9v1H7v1H5v1H3v-1h1v-2h1v-2h1v-2H5V9H4V8H3V7h5V5h1V3h2zM9 8H8v3h1V8zm3 0h-1v3h1V8z"/><path class="gl-rating-half" fill="currentColor" d="M10 3v11H9v1H7v1H5v1H3v-1h1v-2h1v-2h1v-2H5V9H4V8H3V7h5V5h1V3h1zM9 8H8v3h1V8z"/><path fill="#000" fill-opacity=".25" d="M15 16h-2v-1h-2v-1H9v1H7v1H5v1H3v-1h1v-2h1v-2h1v-2H5V9H4V8H3V7h1v1h1v1h1v1h1v2H6v2H5v1h2v-1h2v-1h2v1l2 .012V15h2v-1h-1v-2h-1v-2h1V9h1V8h1V7h1v1h-1v1h-1v1h-1v2h1v2.012h1V16h1v1h-2z"/></svg>
