<svg data-svg="emoji" xmlns="http://www.w3.org/2000/svg" viewBox="0 0 20 20"><circle class="gl-rating-empty" fill="#dcdce6" cx="10" cy="10" r="10"/><circle class="gl-rating-full" fill="#FFC385" cx="10" cy="10" r="10"/><path class="gl-rating-half" fill="#dcdce6" opacity=".001" d="M10 0c5.523 0 10 4.477 10 10s-4.477 10-10 10"/><path class="gl-rating-face" fill="#393939" d="M10 12.8c1.479 0 3.083.278 3.974.749a.8.8 0 11-.748 1.415c-.618-.327-1.984-.564-3.226-.564-1.117 0-2.153.195-3.334.61a.8.8 0 11-.532-1.508C7.48 13.028 8.692 12.8 10 12.8zm3.698-6.798c.254.312.28.342.514.636.235.293.246.304.428.526.182.222.272.322.56.696a1.6 1.6 0 11-1.502-1.858zm-7.375 0a1.596 1.596 0 011.418.724A1.6 1.6 0 114.82 7.86c.288-.374.379-.474.56-.696s.193-.233.428-.526c.234-.294.26-.324.514-.636z"/></svg>