<svg data-svg="emoji" xmlns="http://www.w3.org/2000/svg" viewBox="0 0 20 20"><radialGradient id="gl-gradient-1e" cx="50%" cy="50%" r="50%"><stop offset="0" stop-color="#ddd"/><stop offset=".7" stop-color="#cdcdcd"/><stop offset=".8" stop-color="#c9c9c9"/><stop offset=".9" stop-color="#bcbcbc"/><stop offset="1" stop-color="#b2b2b2"/></radialGradient><radialGradient id="gl-gradient-1f" cx="50%" cy="50%" r="50%"><stop offset="0" stop-color="#FFC7D4"/><stop offset=".7" stop-color="#F86F73"/><stop offset=".8" stop-color="#EE5F67"/><stop offset=".9" stop-color="#DC4654"/><stop offset="1" stop-color="#C92A3F"/></radialGradient><linearGradient id="gl-gradient-1h"><stop offset="0" stop-color="#b2b2b2"/><stop offset=".1" stop-color="#bcbcbc"/><stop offset=".2" stop-color="#c9c9c9"/><stop offset=".3" stop-color="#cdcdcd"/><stop offset="1" stop-color="#ddd"/></linearGradient><circle class="gl-rating-empty" fill="url(#gl-gradient-1e)" cx="10" cy="10" r="10"/><circle class="gl-rating-full" fill="url(#gl-gradient-1f)" cx="10" cy="10" r="10"/><path class="gl-rating-half" fill="url(#gl-gradient-1h)" opacity=".001" d="M10 20c5.523 0 10-4.477 10-10S15.523 0 10 0"/><g class="gl-rating-face"><path fill="#FFF" d="M14.904 8.429a2.222 2.222 0 01-3.142 3.143s.31-1.096 1.178-1.965a5.06 5.06 0 011.964-1.178zm-9.808 0l.034.01.099.033c.318.112 1.145.45 1.831 1.135a5.06 5.06 0 011.178 1.965 2.222 2.222 0 01-3.142-3.143z"/><path fill="#212121" d="M10 13.333c1.366 0 2.325.664 2.95 1.343.214.233-.06.586-.338.432A5.35 5.35 0 0010 14.444a5.35 5.35 0 00-2.612.664c-.278.154-.552-.199-.337-.432.624-.68 1.583-1.343 2.949-1.343zM5.184 7.786c.547.058 1.11.265 1.58.586.474.319.857.726 1.192 1.149.34.424.608.879.86 1.34a.544.544 0 11-.955.521l-.012-.021c-.114-.213-.225-.43-.34-.64l-.057.065a1.11 1.11 0 11-1.269-1.787l.074.059a2.746 2.746 0 00-1.19-.578c-.454-.1-.95-.122-1.456-.147a.278.278 0 010-.555c.505-.024 1.026-.056 1.573.008zm11.205-.008a.278.278 0 010 .555c-.507.025-1.003.048-1.456.147a2.72 2.72 0 00-1.118.52 1.11 1.11 0 11-1.326 1.722c-.113.21-.224.426-.339.639l-.01.019a.543.543 0 11-.958-.516l.001-.002c.253-.462.52-.918.86-1.341.336-.423.719-.83 1.193-1.15a3.54 3.54 0 011.58-.585c.547-.064 1.068-.032 1.573-.008z"/></g></svg>