<svg data-svg="solid" xmlns="http://www.w3.org/2000/svg" viewBox="0 0 20 20"><path class="gl-rating-full" fill="currentColor" d="M10 0c5.523 0 10 4.477 10 10s-4.477 10-10 10S0 15.523 0 10 4.477 0 10 0zm.242 4.064a.578.578 0 00-.5 0c-.164.075-.28.226-.349.452l-1.08 3.375-3.519-.03c-.254-.008-.44.06-.56.205a.625.625 0 00-.144.499c.024.188.128.348.313.478l2.881 2.058-1.132 3.343c-.075.24-.068.441.02.602.09.161.225.26.407.294.182.034.372-.024.571-.175l2.84-2.079 2.84 2.079c.205.15.399.209.58.175a.562.562 0 00.407-.294c.089-.16.096-.362.02-.602l-1.131-3.343 2.88-2.058a.71.71 0 00.31-.478.619.619 0 00-.135-.5c-.116-.143-.305-.212-.566-.205l-3.518.03-1.08-3.374c-.069-.226-.187-.377-.355-.452z"/><path class="gl-rating-half" fill="currentColor" d="M10 0v4.007a.589.589 0 00-.257.057c-.165.075-.281.226-.35.452l-1.08 3.375-3.519-.03c-.254-.008-.44.06-.56.205a.625.625 0 00-.144.499c.024.188.128.348.313.478l2.881 2.058-1.132 3.343c-.075.24-.068.441.02.602.09.161.225.26.407.294.182.034.372-.024.571-.175l2.84-2.079.01.008V20C4.57 20 .152 15.673.004 10.28L0 10C0 4.477 4.477 0 10 0z"/></svg>