<svg data-svg="solid" xmlns="http://www.w3.org/2000/svg" viewBox="0 0 20 20"><path fill="#fff" d="M14.5 17h-1v-1h-2v-1h-3v1h-2v1h-1v1h-3v-3h1v-2h1v-2h-1v-1h-1V9h-1V8h-1V6h6V4h1V2h1V1h1V0h1v1h1v1h1v2h1v2h6v2h-1v1h-1v1h-1v1h-1v2.012h1V15h1v3h-3z"/><path fill="#000" d="M17.5 15v3h-3v-1h2v-2h1zm-3 1v1h-1v-1h1zm-1-1v1h-2v-1h2zm-5 0v1h-2v-1h2zm8-2v2h-1v-2h1zm-5 1v1h-3v-1h3zm4-3v2h-1v-2h1zm-10 5h1v1h-1zm11-6v1h-1v-1h1zm1-1v1h-1V9h1zm-14 1h1v1h-1zm0-1v1h-1V9h1zm-1-1v1h-1V8h1zm15 0h1v1h-1zm-4-2h6v2h-1V7h-5V6zm-9 5h1v2h-1zm-1 4v2h2v1h-3v-3h1zm1-2v2h-1v-2h1zm8-9h1v2h-1zm-1-2h1v2h-1zm-1-1h1v1h-1zm-1-1h1v1h-1zm-1 4h-1V2h1V1h1v1h-1v2zm-2 0h1v2h-1zm-6 2h6v1h-5v1h-1V6zm11 1h1v3h-1zm-4 0h1v3h-1z"/><g class="gl-rating-half"><path fill="#41a4f4" d="M8.5 14v1h-1v-1h1zm1-1v1h-1v-1h1z"/><path fill="#61dd12" d="M3.5 15h2v-1h1v-1h1v-1h1v-1h1v2h-1v1h-1v1h-1v1h-1v1h-2z"/><path fill="#dc2c02" d="M7.5 4h1v1h-1zm2 0h-1V2h1v2zm-8 3h4v1h-1v1h-2V8h-1V7z"/><path fill="#f37e17" d="M9.5 7h-2v2h-1v1h-1v1h-1v-1h-1V9h1V8h1V7h1V6h1V5h1V4h1z"/><path fill="#fcd732" d="M9.5 11h-1v1h-1v1h-1v1h-1v1h-1v-2h1v-3h1V9h1v1h1V7h1z"/></g><g class="gl-rating-full"><path fill="#19217d" d="M14.5 11v3h-1v1h-2v-2h1v-1h1v-1h1zm1-1v1h-1v-1h1zm1-1v1h-1V9h1zm1-1v1h-1V8h1zm1-1v1h-1V7h1z"/><path fill="#663ab7" d="M13.5 14h1v-1h1v3h-2z"/><path fill="#9a27b0" d="M14.5 16h1v-1h1v2h-2z"/><path fill="#41a4f4" d="M8.5 14v1h-1v-1h1zm9-7v1h-1v1h-1v1h-1v1h-1v1h-1v1.012l-1-.012v1h-3v-1h1v-1h1v-1h1v-1h1V9h1V8h1V7h3z"/><path fill="#61dd12" d="M12.5 7h-1V6h2v1h1v1h-1v1h-1V7zm-9 8h2v-1h1v-1h1v-1h1v-1h1v-1h1v-.975h1V11h-1v1h-1v1h-1v1h-1v1h-1v1h-1v1h-2v-2z"/><path fill="#dc2c02" d="M7.5 4h1v1h-1zm2-3h1v2h-1v1h-1V2h1V1zm-8 6h4v1h-1v1h-2V8h-1V7z"/><path fill="#f37e17" d="M10.5 2h1v2h-1v2h-1v1h-2v2h-1v1h-1v1h-1v-1h-1V9h1V8h1V7h1V6h1V5h1V4h1V3h1z"/><path fill="#fcd732" d="M10.5 4h2v2h-1v3.025h-1V10h-1v1h-1v1h-1v1h-1v1h-1v1h-1v-2h1v-3h1V9h1v1h1V7h1V6h1z"/></g></svg>
