<svg data-svg="emoji" xmlns="http://www.w3.org/2000/svg" viewBox="0 0 20 20"><circle class="gl-rating-empty" fill="#dcdce6" cx="10" cy="10" r="10"/><circle class="gl-rating-full" fill="#FFD885" cx="10" cy="10" r="10"/><path class="gl-rating-half" fill="#dcdce6" opacity=".001" d="M10 0c5.523 0 10 4.477 10 10s-4.477 10-10 10"/><path class="gl-rating-face" fill="#393939" d="M13.446 13.063a.8.8 0 11.813 1.379A8.364 8.364 0 0110 15.6a8.364 8.364 0 01-4.259-1.158.8.8 0 11.813-1.379A6.764 6.764 0 0010 14c1.23 0 2.41-.326 3.446-.937zm.231-7.061a1.594 1.594 0 011.054.467 1.598 1.598 0 010 2.262 1.6 1.6 0 11-1.054-2.73zm-7.354 0a1.596 1.596 0 011.418.724 1.6 1.6 0 11-1.418-.724z"/></svg>