<svg data-svg="solid" xmlns="http://www.w3.org/2000/svg" viewBox="0 0 20 20"><path class="gl-rating-full" fill="currentColor" d="M9.988 0C15.463 0 20 4.53 20 10.004 20 15.47 15.47 20 9.996 20 4.53 20 0 15.47 0 10.004 0 4.53 4.522 0 9.988 0zM10 8.36c-1.354 0-1.765 1.003-2.216 2.026-.15.301-.301.622-.481.893-.241.381-.602.672-.963.953-.662.562-1.374 1.163-1.374 2.317 0 1.334.913 2.286 2.246 2.286.662 0 1.143-.18 1.595-.351.391-.15.752-.271 1.193-.271.431 0 .792.12 1.183.271.451.171.933.351 1.595.351 1.334 0 2.246-.953 2.246-2.286 0-1.153-.712-1.755-1.374-2.317-.361-.281-.712-.562-.953-.933-.181-.281-.341-.602-.481-.913C11.755 9.363 11.344 8.36 10 8.36zM4.595 6.996C3.682 6.996 3 7.999 3 9.343c0 1.334.682 2.327 1.595 2.327.903 0 1.605-.993 1.605-2.327 0-1.344-.702-2.347-1.605-2.347zm10.811 0c-.913 0-1.605 1.003-1.605 2.347 0 1.334.692 2.327 1.605 2.327.903 0 1.595-.993 1.595-2.327 0-1.344-.692-2.347-1.595-2.347zM7.834 3.165c-.913 0-1.605.993-1.605 2.327s.692 2.347 1.605 2.347 1.595-1.013 1.595-2.347-.682-2.327-1.595-2.327zm4.332 0c-.913 0-1.595.993-1.595 2.327s.682 2.347 1.595 2.347c.903 0 1.605-1.013 1.605-2.347s-.702-2.327-1.605-2.327z"/><path class="gl-rating-half" fill="currentColor" d="M9.988 0l.003 8.36-.178.007c-1.206.089-1.599 1.045-2.029 2.019l-.481.893c-.241.381-.602.672-.963.953-.662.562-1.374 1.163-1.374 2.317 0 1.334.913 2.286 2.246 2.286.662 0 1.143-.18 1.595-.351.39-.15.749-.27 1.188-.271L9.996 20C4.53 20 0 15.47 0 10.004 0 4.53 4.522 0 9.988 0zM4.595 6.996C3.682 6.996 3 7.999 3 9.343c0 1.334.682 2.327 1.595 2.327.903 0 1.605-.993 1.605-2.327 0-1.344-.702-2.347-1.605-2.347zm3.239-3.831c-.913 0-1.605.993-1.605 2.327s.692 2.347 1.605 2.347 1.595-1.013 1.595-2.347-.682-2.327-1.595-2.327z"/></svg>
