<svg data-svg="emoji" xmlns="http://www.w3.org/2000/svg" viewBox="0 0 20 20"><radialGradient id="gl-gradient-3e" cx="50%" cy="50%" r="50%"><stop offset="0" stop-color="#ddd"/><stop offset=".7" stop-color="#cdcdcd"/><stop offset=".8" stop-color="#c9c9c9"/><stop offset=".9" stop-color="#bcbcbc"/><stop offset="1" stop-color="#b2b2b2"/></radialGradient><radialGradient id="gl-gradient-3f" cx="50%" cy="50%" r="50%"><stop offset="0" stop-color="#FFE16E"/><stop offset=".7" stop-color="#FFD226"/><stop offset=".8" stop-color="#FDCD23"/><stop offset=".9" stop-color="#F6BD1B"/><stop offset="1" stop-color="#F0AF13"/></radialGradient><linearGradient id="gl-gradient-3h"><stop offset="0" stop-color="#b2b2b2"/><stop offset=".1" stop-color="#bcbcbc"/><stop offset=".2" stop-color="#c9c9c9"/><stop offset=".3" stop-color="#cdcdcd"/><stop offset="1" stop-color="#ddd"/></linearGradient><circle class="gl-rating-empty" fill="url(#gl-gradient-3e)" cx="10" cy="10" r="10"/><circle class="gl-rating-full" fill="url(#gl-gradient-3f)" cx="10" cy="10" r="10"/><path class="gl-rating-half" fill="url(#gl-gradient-3h)" opacity=".001" d="M10 20c5.523 0 10-4.477 10-10S15.523 0 10 0"/><g class="gl-rating-face"><path fill="#FFF" d="M13.333 6.111a2.222 2.222 0 110 4.445 2.222 2.222 0 010-4.445zm-6.666 0a2.222 2.222 0 110 4.445 2.222 2.222 0 010-4.445z"/><path fill="#212121" d="M5.278 13.889a.278.278 0 01-.094-.54c.001 0 1.964-.571 4.816-.571s4.815.57 4.815.57a.278.278 0 01-.093.54zm8.055-6.667a1.111 1.111 0 110 2.222 1.111 1.111 0 010-2.222zm-6.666 0a1.111 1.111 0 110 2.222 1.111 1.111 0 010-2.222z"/></g></svg>