<svg data-svg="solid" xmlns="http://www.w3.org/2000/svg" viewBox="0 0 20 20"><path class="gl-rating-full" fill="currentColor" d="M10 0c5.523 0 10 4.477 10 10s-4.477 10-10 10S0 15.523 0 10 4.477 0 10 0zm2.387 5.576c-.528 0-.998.14-1.41.422-.411.281-.74.645-.987 1.09a3.187 3.187 0 00-.978-1.09c-.404-.281-.878-.422-1.42-.422-.562 0-1.063.132-1.501.396a2.81 2.81 0 00-1.034 1.086c-.25.46-.376.987-.376 1.584 0 .542.103 1.068.309 1.58.205.51.482.999.828 1.465.346.467.73.902 1.152 1.307a15.532 15.532 0 002.506 1.955c.088.054.184.108.287.159a.598.598 0 00.247.077.5.5 0 00.247-.077c.09-.051.175-.105.257-.16.37-.24.774-.526 1.21-.858a15.1 15.1 0 001.285-1.106c.422-.405.806-.84 1.153-1.307.346-.466.624-.953.833-1.461a4.094 4.094 0 00.314-1.574c0-.597-.126-1.125-.376-1.584a2.799 2.799 0 00-1.039-1.086 2.884 2.884 0 00-1.507-.396z"/><path class="gl-rating-half" fill="currentColor" d="M10 0v7.07l-.01.018a3.209 3.209 0 00-.782-.943l-.196-.147c-.404-.281-.878-.422-1.42-.422-.562 0-1.063.132-1.501.396a2.81 2.81 0 00-1.034 1.086c-.25.46-.376.987-.376 1.584 0 .542.103 1.068.309 1.58.205.51.482.999.828 1.465.346.467.73.902 1.152 1.307a15.532 15.532 0 002.506 1.955c.088.054.184.108.287.159a.598.598 0 00.247.077l-.01-.001V20C4.57 20 .152 15.673.004 10.28L0 10C0 4.477 4.477 0 10 0z"/></svg>