<svg data-svg="emoji" xmlns="http://www.w3.org/2000/svg" viewBox="0 0 20 20"><circle class="gl-rating-empty" fill="#dcdce6" cx="10" cy="10" r="10"/><circle class="gl-rating-full" fill="#FFD885" cx="10" cy="10" r="10"/><path class="gl-rating-half" fill="#dcdce6" opacity=".001" d="M10 0c5.523 0 10 4.477 10 10s-4.477 10-10 10"/><path class="gl-rating-face" fill="#393939" d="M13.325 13.2c.234 0 .643.227.706.665.063.437-.24.843-.677.935H7.14c-.231 0-.66-.26-.756-.691-.096-.391.175-.819.606-.909zm.352-7.198a1.594 1.594 0 011.054.467 1.598 1.598 0 010 2.262 1.6 1.6 0 11-1.054-2.73zm-7.354 0a1.596 1.596 0 011.418.724 1.6 1.6 0 11-1.418-.724z"/></svg>