<svg data-svg="outline" xmlns="http://www.w3.org/2000/svg" viewBox="0 0 20 20"><path class="gl-rating-half" fill="none" d="M9.959 1.134L7.487 7.576a.01.01 0 01-.008.006l-6.87.364a.01.01 0 00-.005.017l5.363 4.348a.01.01 0 01.004.01l-1.786 6.654a.01.01 0 00.016.011l5.796-3.73a.01.01 0 00.004-.008l-.023-14.11a.01.01 0 00-.02-.004z"/><path class="gl-rating-full" fill="none" stroke="currentColor" d="M12.469 7.576L9.987 1.108a.01.01 0 00-.018 0L7.487 7.576a.01.01 0 01-.008.006l-6.87.364a.01.01 0 00-.005.017l5.363 4.348a.01.01 0 01.004.01l-1.786 6.654a.01.01 0 00.016.011l5.795-3.729a.01.01 0 01.01 0l5.796 3.729a.01.01 0 00.015-.011l-1.785-6.654a.01.01 0 01.004-.01l5.36-4.345a.01.01 0 00-.005-.018l-6.913-.366a.01.01 0 01-.01-.006z"/></svg>