<svg data-svg="emoji" xmlns="http://www.w3.org/2000/svg" viewBox="0 0 20 20"><radialGradient id="gl-gradient-2e" cx="50%" cy="50%" r="50%"><stop offset="0" stop-color="#ddd"/><stop offset=".7" stop-color="#cdcdcd"/><stop offset=".8" stop-color="#c9c9c9"/><stop offset=".9" stop-color="#bcbcbc"/><stop offset="1" stop-color="#b2b2b2"/></radialGradient><radialGradient id="gl-gradient-2f" cx="50%" cy="50%" r="50%"><stop offset="0" stop-color="#FFC56E"/><stop offset=".7" stop-color="#FFA826"/><stop offset=".8" stop-color="#FD9F23"/><stop offset=".9" stop-color="#F6901B"/><stop offset="1" stop-color="#F07A13"/></radialGradient><linearGradient id="gl-gradient-2h"><stop offset="0" stop-color="#b2b2b2"/><stop offset=".1" stop-color="#bcbcbc"/><stop offset=".2" stop-color="#c9c9c9"/><stop offset=".3" stop-color="#cdcdcd"/><stop offset="1" stop-color="#ddd"/></linearGradient><circle class="gl-rating-empty" fill="url(#gl-gradient-2e)" cx="10" cy="10" r="10"/><circle class="gl-rating-full" fill="url(#gl-gradient-2f)" cx="10" cy="10" r="10"/><path class="gl-rating-half" fill="url(#gl-gradient-2h)" opacity=".001" d="M10 20c5.523 0 10-4.477 10-10S15.523 0 10 0"/><g class="gl-rating-face"><path fill="#FFF" d="M13.889 7.778c1.227 0 2.222.555 2.222.555a2.222 2.222 0 01-4.444 0s.995-.555 2.222-.555zm-7.778 0c1.227 0 2.222.555 2.222.555a2.222 2.222 0 01-4.444 0s.995-.555 2.222-.555z"/><path fill="#212121" d="M10 12.778c1.366 0 2.325.663 2.95 1.342.214.234-.06.586-.338.433A5.35 5.35 0 0010 13.889a5.35 5.35 0 00-2.612.664c-.278.153-.552-.2-.337-.433.624-.679 1.583-1.342 2.949-1.342zm3.889-5c.372 0 .717.053 1.024.124a1.11 1.11 0 11-2.049 0 4.541 4.541 0 011.025-.124zm-7.778 0c.372 0 .717.053 1.025.124a1.11 1.11 0 11-2.049 0 4.541 4.541 0 011.024-.124zm8.546-2.74c.467.054.92.186 1.334.382.416.2.786.437 1.14.762a.277.277 0 01-.35.429l-.023-.016a3.987 3.987 0 00-1.032-.528A3.47 3.47 0 0014.6 5.88a3.068 3.068 0 00-1.092.19c-.351.113-.673.313-.984.519l-.03.02a.566.566 0 11-.574-.974c.419-.218.851-.417 1.322-.515a3.97 3.97 0 011.415-.08zm-7.898.082c.47.097.903.297 1.322.514a.566.566 0 11-.574.974l-.031-.02c-.311-.206-.633-.406-.984-.52A3.068 3.068 0 005.4 5.88a3.473 3.473 0 00-1.126.188 3.987 3.987 0 00-1.032.528l-.022.016a.277.277 0 01-.35-.428 4.54 4.54 0 011.14-.762 4.242 4.242 0 011.334-.382 3.97 3.97 0 011.415.081z"/></g></svg>