<svg data-svg="solid" xmlns="http://www.w3.org/2000/svg" viewBox="0 0 20 20"><path class="gl-rating-full" fill="currentColor" d="M6.942 6.009H1.61L0 8.088l4.398 3.809.018 5.342 1.698 1.756 3.889-3.115 3.884 3.115 1.69-1.759.018-5.342L20 8.091l-1.621-2.082H13.05L9.996 0z"/><path class="gl-rating-half" fill="currentColor" d="M6.942 6.009H1.61L0 8.088l4.398 3.809.018 5.342 1.698 1.756 3.889-3.115L9.996 0z"/><path fill="#fff" fill-opacity=".25" style="mix-blend-mode: overlay;" d="M9.996 0l3.054 6.009h5.329L20 8.091l-4.405 3.803-.004 1.008a10.01 10.01 0 0 1-8.314-7.553L9.996 0z"/><path fill="#000" style="mix-blend-mode: multiply;" d="M6.942 6.009H1.61L0 8.088l4.398 3.809.018 5.342 1.698 1.756 3.889-3.115 3.884 3.115 1.69-1.759.018-5.342L20 8.091l-1.621-2.082H13.05L9.996 0 6.942 6.009zm5.266 1.389l5.547.001.423.55-3.96 3.291-.018 5.43-.442.453-3.736-2.999-3.789 3-.427-.444-.021-5.442-3.983-3.315.44-.52L7.8 7.388 9.998 3.04l2.209 4.355.001.003z"/></svg>
