<svg data-svg="emoji" xmlns="http://www.w3.org/2000/svg" viewBox="0 0 20 20"><radialGradient id="gl-gradient-5e" cx="50%" cy="50%" r="50%"><stop offset="0" stop-color="#ddd"/><stop offset=".7" stop-color="#cdcdcd"/><stop offset=".8" stop-color="#c9c9c9"/><stop offset=".9" stop-color="#bcbcbc"/><stop offset="1" stop-color="#b2b2b2"/></radialGradient><radialGradient id="gl-gradient-5f" cx="50%" cy="50%" r="50%"><stop offset="0" stop-color="#FFE16E"/><stop offset=".7" stop-color="#FFD226"/><stop offset=".8" stop-color="#FDCD23"/><stop offset=".9" stop-color="#F6BD1B"/><stop offset="1" stop-color="#F0AF13"/></radialGradient><linearGradient id="gl-gradient-5h"><stop offset="0" stop-color="#b2b2b2"/><stop offset=".1" stop-color="#bcbcbc"/><stop offset=".2" stop-color="#c9c9c9"/><stop offset=".3" stop-color="#cdcdcd"/><stop offset="1" stop-color="#ddd"/></linearGradient><circle class="gl-rating-empty" fill="url(#gl-gradient-5e)" cx="10" cy="10" r="10"/><circle class="gl-rating-full" fill="url(#gl-gradient-5f)" cx="10" cy="10" r="10"/><path class="gl-rating-half" fill="url(#gl-gradient-5h)" opacity=".001" d="M10 20c5.523 0 10-4.477 10-10S15.523 0 10 0"/><g class="gl-rating-face"><path fill="#212121" d="M16.111 11.111a6.111 6.111 0 01-12.222 0H16.11z"/><path fill="#FFF" d="M5 11.667v.555a1.11 1.11 0 001.111 1.111h7.778A1.11 1.11 0 0015 12.223v-.556H5z"/><path class="gl-rating-face-red" fill="#C92A3F" d="M10.556 15c1.156 0 1.903 1.088 1.903 1.088a5.515 5.515 0 01-4.918 0S8.288 15 9.444 15c.287 0 .556.278.556.278s.269-.278.556-.278zm3.946-11.46l.861 1.797 1.976.264c.305.04.427.416.204.628L16.1 7.604l.36 1.961a.366.366 0 01-.535.388l-1.753-.947-1.754.947a.366.366 0 01-.534-.388l.36-1.96L10.8 6.228a.366.366 0 01.204-.628l1.976-.264.862-1.798a.366.366 0 01.66 0zm-9.004 0a.366.366 0 01.66 0l.862 1.797 1.976.264c.305.04.427.416.204.628L7.757 7.604l.36 1.961a.366.366 0 01-.535.388l-1.754-.947-1.753.947a.366.366 0 01-.534-.388l.359-1.96-1.443-1.376a.366.366 0 01.204-.628l1.976-.264z"/></g></svg>