<svg data-svg="solid" xmlns="http://www.w3.org/2000/svg" viewBox="0 0 20 20"><path class="gl-rating-full" fill="currentColor" d="M14.231 0c.382 0 .718.008 1.016.023l.42.028c.395.033.715.083.99.149l.262.07c.166.052.317.11.461.174l.213.102.105.055a4.089 4.089 0 011.701 1.701l.055.105.102.213c.064.144.122.295.173.461l.071.262c.066.275.116.595.15.99l.027.42c.008.149.014.307.017.476l.006.54v8.462l-.006.54c-.003.169-.01.327-.017.476l-.028.42a6.684 6.684 0 01-.149.99l-.07.262c-.052.166-.11.317-.174.461l-.102.213-.055.105a4.089 4.089 0 01-1.701 1.701l-.105.055-.213.102a3.946 3.946 0 01-.461.173l-.262.071a6.684 6.684 0 01-.99.15l-.42.027a13.23 13.23 0 01-.476.017l-.54.006H5.77l-.54-.006c-.169-.003-.327-.01-.476-.017l-.42-.028a6.684 6.684 0 01-.99-.149l-.262-.07a3.946 3.946 0 01-.461-.174l-.213-.102a4.089 4.089 0 01-1.806-1.756l-.055-.105-.102-.213a3.946 3.946 0 01-.173-.461L.2 16.657a6.684 6.684 0 01-.15-.99l-.027-.42A18.666 18.666 0 010 14.51V5.77c0-.382.008-.718.023-1.016l.028-.42c.033-.395.083-.715.149-.99l.07-.262c.052-.166.11-.317.174-.461l.102-.213.055-.105A4.089 4.089 0 012.302.601l.105-.055.213-.102c.144-.064.295-.122.461-.173L3.343.2c.275-.066.595-.116.99-.15l.42-.027C4.976.01 5.22.004 5.49 0h8.74zm-4.65 4.01L7.97 7.23l-3.824.588-.04.008a.469.469 0 00-.22.787l2.645 2.644-.589 3.828-.005.04a.469.469 0 00.685.447L10 13.81l3.377 1.762.037.017c.331.14.7-.138.643-.504l-.589-3.828 2.645-2.644.028-.031a.469.469 0 00-.288-.764l-3.824-.588-1.61-3.22a.469.469 0 00-.838 0z"/><path class="gl-rating-half" fill="currentColor" d="M10 .002V3.75a.463.463 0 00-.42.26L7.97 7.23l-3.823.588-.04.008a.469.469 0 00-.22.787l2.645 2.644-.589 3.828-.005.04a.469.469 0 00.685.447L10 13.81V20l-4.657-.002-.5-.012c-.815-.033-1.388-.122-1.89-.295l-.185-.069-.229-.1-.228-.115a4.134 4.134 0 01-1.718-1.718l-.06-.117-.062-.125-.1-.23c-.19-.48-.297-1.021-.344-1.8l-.013-.268-.012-.505v-9.3l.012-.5c.033-.816.122-1.389.295-1.89l.069-.186.1-.229.115-.228A4.134 4.134 0 012.311.593l.117-.06.125-.062.23-.1c.48-.19 1.021-.297 1.8-.344L4.85.014l.505-.012H10z"/></svg>