<svg data-svg="emoji" xmlns="http://www.w3.org/2000/svg" viewBox="0 0 20 20"><circle class="gl-rating-empty" fill="#dcdce6" cx="10" cy="10" r="10"/><circle class="gl-rating-full" fill="#FFA98D" cx="10" cy="10" r="10"/><path class="gl-rating-half" fill="#dcdce6" opacity=".001" d="M10 0c5.523 0 10 4.477 10 10s-4.477 10-10 10"/><path class="gl-rating-face" fill="#393939" d="M10 12.6c1.475 0 2.897.382 4.152 1.097a.8.8 0 01-.792 1.39A6.763 6.763 0 0010 14.2a6.765 6.765 0 00-3.36.887.8.8 0 11-.792-1.39A8.364 8.364 0 0110 12.6zm4.599-6.25a1.598 1.598 0 01.133 2.382 1.6 1.6 0 01-2.473-2.006c.21-.035.247-.047.455-.08.208-.034.753-.11 1.119-.177.366-.067.453-.083.766-.12zm-9.198 0c.313.036.4.052.766.119.366.066.91.143 1.119.177.208.033.245.045.455.08A1.6 1.6 0 115.4 6.35z"/></svg>