<svg role="img" xmlns="http://www.w3.org/2000/svg" width="20" height="20" viewBox="0 0 20 20" fill="currentColor">
    <path class="glsr_path_icon" d="M17.354 3c.207 0 .375.168.375.375a.38.38 0 0 1-.049.186L15 8.25l2.679 4.689c.103.18.04.409-.14.512a.38.38 0 0 1-.186.049H4.5v3.75H3V3h14.354zm-1.939 1.5H4.5V12h10.915l-2.143-3.75 2.143-3.75z"/>
    <path class="glsr_path_loading" display="none" d="M10 2a.8.8 0 0 1 .8.8v2.4a.8.8 0 1 1-1.6 0V2.8A.8.8 0 0 1 10 2zm0 12a.8.8 0 0 1 .8.8v2.4a.8.8 0 1 1-1.6 0v-2.4a.8.8 0 0 1 .8-.8zm8-4a.8.8 0 0 1-.8.8h-2.4a.8.8 0 1 1 0-1.6h2.4a.8.8 0 0 1 .8.8zM6 10a.8.8 0 0 1-.8.8H2.8a.8.8 0 1 1 0-1.6h2.4a.8.8 0 0 1 .8.8zm9.657 5.657a.8.8 0 0 1-1.131 0l-1.697-1.697a.8.8 0 0 1 1.131-1.131l1.697 1.697a.8.8 0 0 1 0 1.131h0zM7.171 7.171a.8.8 0 0 1-1.131 0L4.343 5.474a.8.8 0 0 1 .353-1.349.8.8 0 0 1 .778.218L7.171 6.04a.8.8 0 0 1 0 1.131zm-2.828 8.486a.8.8 0 0 1 0-1.131l1.697-1.697a.8.8 0 0 1 1.131 1.131l-1.697 1.697a.8.8 0 0 1-1.131 0h0zm8.486-8.486a.8.8 0 0 1 0-1.131l1.697-1.697a.8.8 0 0 1 1.131 1.131L13.96 7.171a.8.8 0 0 1-1.131 0z">
        <animateTransform attributeName="transform" attributeType="XML" type="rotate" dur="2s" from="0 10 10" to="360 10 10" repeatCount="indefinite"/>
    </path>
</svg>
