<svg role="img" xmlns="http://www.w3.org/2000/svg" width="20" height="20" viewBox="0 0 20 20" fill="currentColor">
    <path class="glsr_path_icon" d="M11.09 13.767l-3.149-1.718A2.99 2.99 0 0 1 5.75 13a3 3 0 1 1 0-6 2.99 2.99 0 0 1 2.191.951l3.149-1.718c-.059-.235-.09-.48-.09-.733a3 3 0 1 1 3 3 2.99 2.99 0 0 1-2.191-.951L8.66 9.267c.059.235.09.48.09.733s-.031.498-.09.733l3.149 1.718A2.99 2.99 0 0 1 14 11.5a3 3 0 1 1-3 3c0-.253.031-.498.09-.733zM5.75 11.5a1.5 1.5 0 1 0 0-3 1.5 1.5 0 1 0 0 3zM14 7a1.5 1.5 0 1 0 0-3 1.5 1.5 0 1 0 0 3zm0 9a1.5 1.5 0 1 0 0-3 1.5 1.5 0 1 0 0 3z"/>
    <path class="glsr_path_loading" display="none" d="M10 2a.8.8 0 0 1 .8.8v2.4a.8.8 0 1 1-1.6 0V2.8A.8.8 0 0 1 10 2zm0 12a.8.8 0 0 1 .8.8v2.4a.8.8 0 1 1-1.6 0v-2.4a.8.8 0 0 1 .8-.8zm8-4a.8.8 0 0 1-.8.8h-2.4a.8.8 0 1 1 0-1.6h2.4a.8.8 0 0 1 .8.8zM6 10a.8.8 0 0 1-.8.8H2.8a.8.8 0 1 1 0-1.6h2.4a.8.8 0 0 1 .8.8zm9.657 5.657a.8.8 0 0 1-1.131 0l-1.697-1.697a.8.8 0 0 1 1.131-1.131l1.697 1.697a.8.8 0 0 1 0 1.131h0zM7.171 7.171a.8.8 0 0 1-1.131 0L4.343 5.474a.8.8 0 0 1 .353-1.349.8.8 0 0 1 .778.218L7.171 6.04a.8.8 0 0 1 0 1.131zm-2.828 8.486a.8.8 0 0 1 0-1.131l1.697-1.697a.8.8 0 0 1 1.131 1.131l-1.697 1.697a.8.8 0 0 1-1.131 0h0zm8.486-8.486a.8.8 0 0 1 0-1.131l1.697-1.697a.8.8 0 0 1 1.131 1.131L13.96 7.171a.8.8 0 0 1-1.131 0z">
        <animateTransform attributeName="transform" attributeType="XML" type="rotate" dur="2s" from="0 10 10" to="360 10 10" repeatCount="indefinite"/>
    </path>
</svg>

