<svg role="img" xmlns="http://www.w3.org/2000/svg" width="20" height="20" viewBox="0 0 20 20" fill="currentColor">
    <path class="glsr_path_icon" d="M12.72 2c.15-.02.26.02.41.07.56.19.83.79.66 1.35l-1 3.58c0 .53.75 1 1.35 1h3a.94.94 0 0 1 1 1c0 .6-2 7-2 7-.17.39-.55 1-1 1H6V8h2.14c.41-.41 3.3-4.71 3.58-5.27.21-.41.6-.68 1-.73zM2 8h2v9H2V8z"/>
    <path class="glsr_path_loading" display="none" d="M10 2a.8.8 0 0 1 .8.8v2.4a.8.8 0 1 1-1.6 0V2.8A.8.8 0 0 1 10 2zm0 12a.8.8 0 0 1 .8.8v2.4a.8.8 0 1 1-1.6 0v-2.4a.8.8 0 0 1 .8-.8zm8-4a.8.8 0 0 1-.8.8h-2.4a.8.8 0 1 1 0-1.6h2.4a.8.8 0 0 1 .8.8zM6 10a.8.8 0 0 1-.8.8H2.8a.8.8 0 1 1 0-1.6h2.4a.8.8 0 0 1 .8.8zm9.657 5.657a.8.8 0 0 1-1.131 0l-1.697-1.697a.8.8 0 0 1 1.131-1.131l1.697 1.697a.8.8 0 0 1 0 1.131h0zM7.171 7.171a.8.8 0 0 1-1.131 0L4.343 5.474a.8.8 0 0 1 .353-1.349.8.8 0 0 1 .778.218L7.171 6.04a.8.8 0 0 1 0 1.131zm-2.828 8.486a.8.8 0 0 1 0-1.131l1.697-1.697a.8.8 0 0 1 1.131 1.131l-1.697 1.697a.8.8 0 0 1-1.131 0h0zm8.486-8.486a.8.8 0 0 1 0-1.131l1.697-1.697a.8.8 0 0 1 1.131 1.131L13.96 7.171a.8.8 0 0 1-1.131 0z">
        <animateTransform attributeName="transform" attributeType="XML" type="rotate" dur="2s" from="0 10 10" to="360 10 10" repeatCount="indefinite"/>
    </path>
</svg>
