<svg role="img" xmlns="http://www.w3.org/2000/svg" width="20" height="20" viewBox="0 0 20 20" fill="currentColor">
    <path class="glsr_path_icon" d="M12.2 7.25H17a1.5 1.5 0 0 1 1.5 1.5v1.578a1.5 1.5 0 0 1-.113.571l-2.321 5.636a.75.75 0 0 1-.694.464H2.75a.75.75 0 0 1-.75-.75v-7.5A.75.75 0 0 1 2.75 8h2.611a.75.75 0 0 0 .613-.317l4.09-5.794c.107-.151.308-.202.474-.119l1.361.68c.789.394 1.196 1.285.979 2.14L12.2 7.25zM6.5 9.191V15.5h8.37L17 10.328V8.75h-4.8a1.5 1.5 0 0 1-1.454-1.87l.677-2.661c.043-.171-.038-.349-.196-.428l-.496-.248L7.2 8.548a2.25 2.25 0 0 1-.7.643zM5 9.5H3.5v6H5v-6z"/>
    <path class="glsr_path_loading" display="none" d="M10 2a.8.8 0 0 1 .8.8v2.4a.8.8 0 1 1-1.6 0V2.8A.8.8 0 0 1 10 2zm0 12a.8.8 0 0 1 .8.8v2.4a.8.8 0 1 1-1.6 0v-2.4a.8.8 0 0 1 .8-.8zm8-4a.8.8 0 0 1-.8.8h-2.4a.8.8 0 1 1 0-1.6h2.4a.8.8 0 0 1 .8.8zM6 10a.8.8 0 0 1-.8.8H2.8a.8.8 0 1 1 0-1.6h2.4a.8.8 0 0 1 .8.8zm9.657 5.657a.8.8 0 0 1-1.131 0l-1.697-1.697a.8.8 0 0 1 1.131-1.131l1.697 1.697a.8.8 0 0 1 0 1.131h0zM7.171 7.171a.8.8 0 0 1-1.131 0L4.343 5.474a.8.8 0 0 1 .353-1.349.8.8 0 0 1 .778.218L7.171 6.04a.8.8 0 0 1 0 1.131zm-2.828 8.486a.8.8 0 0 1 0-1.131l1.697-1.697a.8.8 0 0 1 1.131 1.131l-1.697 1.697a.8.8 0 0 1-1.131 0h0zm8.486-8.486a.8.8 0 0 1 0-1.131l1.697-1.697a.8.8 0 0 1 1.131 1.131L13.96 7.171a.8.8 0 0 1-1.131 0z">
        <animateTransform attributeName="transform" attributeType="XML" type="rotate" dur="2s" from="0 10 10" to="360 10 10" repeatCount="indefinite"/>
    </path>
</svg>

