<svg role="img" xmlns="http://www.w3.org/2000/svg" width="20" height="20" viewBox="0 0 20 20" fill="currentColor">
    <path class="glsr_path_icon" d="M11.421 6h-1.43a2.01 2.01 0 0 0-1.506.7L7.632 4H4.913l-2.264 7H4.25l.701-2h2.681v4H2.895C1.853 13 1 12.1 1 11V4c0-1.1.853-2 1.895-2h6.632c1.042 0 1.895.9 1.895 2v2zM7.167 8H5.254l.947-2.93L7.167 8zm3.306-1h6.632C18.147 7 19 7.9 19 9v7c0 1.1-.853 2-1.895 2h-6.632c-1.042 0-1.895-.9-1.895-2V9c0-1.1.853-2 1.895-2zm6.868 5v-1.08h-3.003V8.75H13.24v2.17h-3.003V12h1.213c.104.85.531 1.85 1.213 2.62-.824.36-1.791.62-2.188.62-.009.02.208.97.189 1.46.796 0 2.094-.5 3.107-1.15 1.033.65 2.349 1.15 3.164 1.15-.019-.49.189-1.44.189-1.46-.407 0-1.412-.27-2.255-.63.663-.77 1.08-1.77 1.184-2.61h1.288 0zm-3.609 1.93c-.474-.46-.805-1.13-.957-1.93h1.98c-.161.8-.483 1.47-.947 1.93l-.038.03-.038-.03h0z"/>
    <path class="glsr_path_loading" display="none" d="M10 2a.8.8 0 0 1 .8.8v2.4a.8.8 0 1 1-1.6 0V2.8A.8.8 0 0 1 10 2zm0 12a.8.8 0 0 1 .8.8v2.4a.8.8 0 1 1-1.6 0v-2.4a.8.8 0 0 1 .8-.8zm8-4a.8.8 0 0 1-.8.8h-2.4a.8.8 0 1 1 0-1.6h2.4a.8.8 0 0 1 .8.8zM6 10a.8.8 0 0 1-.8.8H2.8a.8.8 0 1 1 0-1.6h2.4a.8.8 0 0 1 .8.8zm9.657 5.657a.8.8 0 0 1-1.131 0l-1.697-1.697a.8.8 0 0 1 1.131-1.131l1.697 1.697a.8.8 0 0 1 0 1.131h0zM7.171 7.171a.8.8 0 0 1-1.131 0L4.343 5.474a.8.8 0 0 1 .353-1.349.8.8 0 0 1 .778.218L7.171 6.04a.8.8 0 0 1 0 1.131zm-2.828 8.486a.8.8 0 0 1 0-1.131l1.697-1.697a.8.8 0 0 1 1.131 1.131l-1.697 1.697a.8.8 0 0 1-1.131 0h0zm8.486-8.486a.8.8 0 0 1 0-1.131l1.697-1.697a.8.8 0 0 1 1.131 1.131L13.96 7.171a.8.8 0 0 1-1.131 0z">
        <animateTransform attributeName="transform" attributeType="XML" type="rotate" dur="2s" from="0 10 10" to="360 10 10" repeatCount="indefinite"/>
    </path>
</svg>
