<svg role="img" xmlns="http://www.w3.org/2000/svg" width="20" height="20" viewBox="0 0 20 20" fill="currentColor">
    <path class="glsr_path_icon" d="M14.632 8.579L18 17h-1.65l-.919-2.297H12.3L11.382 17H9.733L13.1 8.579h1.531zM8.124 2.455v1.531h4.593v1.531h-1.506a13.95 13.95 0 0 1-2.772 4.823 11.38 11.38 0 0 0 1.788 1.307l-.575 1.437a13.07 13.07 0 0 1-2.295-1.654c-1.367 1.23-2.978 2.167-4.747 2.717l-.411-1.477a11.26 11.26 0 0 0 4.079-2.329 13.84 13.84 0 0 1-2.161-3.293h1.714A12.25 12.25 0 0 0 7.357 9.25c.941-1.081 1.7-2.343 2.228-3.733H2V3.986h4.593V2.455h1.531zm5.742 8.333l-.955 2.385h1.908l-.953-2.385z"/>
    <path class="glsr_path_loading" display="none" d="M10 2a.8.8 0 0 1 .8.8v2.4a.8.8 0 1 1-1.6 0V2.8A.8.8 0 0 1 10 2zm0 12a.8.8 0 0 1 .8.8v2.4a.8.8 0 1 1-1.6 0v-2.4a.8.8 0 0 1 .8-.8zm8-4a.8.8 0 0 1-.8.8h-2.4a.8.8 0 1 1 0-1.6h2.4a.8.8 0 0 1 .8.8zM6 10a.8.8 0 0 1-.8.8H2.8a.8.8 0 1 1 0-1.6h2.4a.8.8 0 0 1 .8.8zm9.657 5.657a.8.8 0 0 1-1.131 0l-1.697-1.697a.8.8 0 0 1 1.131-1.131l1.697 1.697a.8.8 0 0 1 0 1.131h0zM7.171 7.171a.8.8 0 0 1-1.131 0L4.343 5.474a.8.8 0 0 1 .353-1.349.8.8 0 0 1 .778.218L7.171 6.04a.8.8 0 0 1 0 1.131zm-2.828 8.486a.8.8 0 0 1 0-1.131l1.697-1.697a.8.8 0 0 1 1.131 1.131l-1.697 1.697a.8.8 0 0 1-1.131 0h0zm8.486-8.486a.8.8 0 0 1 0-1.131l1.697-1.697a.8.8 0 0 1 1.131 1.131L13.96 7.171a.8.8 0 0 1-1.131 0z">
        <animateTransform attributeName="transform" attributeType="XML" type="rotate" dur="2s" from="0 10 10" to="360 10 10" repeatCount="indefinite"/>
    </path>
</svg>
