<svg xmlns="http://www.w3.org/2000/svg" viewBox="0 0 50 50" style="border:1px solid currentColor"><path fill="currentColor" d="M50 0v50h-4.997a22.284 22.284 0 00-2.743-6.387 20.468 20.468 0 00-4.516-5.065 20.808 20.808 0 00-5.892-3.316c-2.157-.791-4.441-1.186-6.854-1.186-2.412 0-4.692.395-6.837 1.186-2.146.79-4.1 1.896-5.86 3.316a20.903 20.903 0 00-4.517 5.065 21.93 21.93 0 00-2.626 5.898l-.132.49H0V0h50zM25 9.687c-1.708 0-3.256.45-4.641 1.353-1.386.902-2.492 2.099-3.317 3.59-.826 1.49-1.23 3.138-1.21 4.943 0 1.899.408 3.604 1.224 5.114.816 1.51 1.917 2.706 3.303 3.59 1.385.883 2.933 1.334 4.641 1.353 1.708 0 3.256-.437 4.641-1.31 1.386-.875 2.487-2.076 3.303-3.605.816-1.529 1.225-3.243 1.225-5.142 0-1.805-.409-3.452-1.225-4.943-.816-1.491-1.917-2.688-3.303-3.59-1.385-.902-2.933-1.353-4.641-1.353z"/></svg>