<svg width="24" height="24" viewBox="0 0 24 24" fill="none" xmlns="http://www.w3.org/2000/svg">
<path d="M3 22H21" stroke="#87AA14" stroke-width="1.5" stroke-linecap="round" stroke-linejoin="round"/>
<path d="M5.59998 8.37988H4C3.45 8.37988 3 8.82988 3 9.37988V17.9999C3 18.5499 3.45 18.9999 4 18.9999H5.59998C6.14998 18.9999 6.59998 18.5499 6.59998 17.9999V9.37988C6.59998 8.82988 6.14998 8.37988 5.59998 8.37988Z" stroke="#87AA14" stroke-width="1.5" stroke-linecap="round" stroke-linejoin="round"/>
<path d="M12.8031 5.18994H11.2031C10.6531 5.18994 10.2031 5.63994 10.2031 6.18994V17.9999C10.2031 18.5499 10.6531 18.9999 11.2031 18.9999H12.8031C13.3531 18.9999 13.8031 18.5499 13.8031 17.9999V6.18994C13.8031 5.63994 13.3531 5.18994 12.8031 5.18994Z" stroke="#87AA14" stroke-width="1.5" stroke-linecap="round" stroke-linejoin="round"/>
<path d="M19.9984 2H18.3984C17.8484 2 17.3984 2.45 17.3984 3V18C17.3984 18.55 17.8484 19 18.3984 19H19.9984C20.5484 19 20.9984 18.55 20.9984 18V3C20.9984 2.45 20.5484 2 19.9984 2Z" stroke="#87AA14" stroke-width="1.5" stroke-linecap="round" stroke-linejoin="round"/>
</svg>
