<svg xmlns="http://www.w3.org/2000/svg" width="50" height="50" fill="none" fill-rule="evenodd"><path stroke="#444" stroke-width="2" d="M27.934 38h19.998"/><g fill="#444"><path d="M27.934 37a1 1 0 1 0 0 2 1 1 0 1 0 0-2z"/><path d="M19.335 27a3.67 3.67 0 0 1 3.667 3.667v14.667A3.67 3.67 0 0 1 19.335 49H4.669a3.67 3.67 0 0 1-3.667-3.667V30.667A3.67 3.67 0 0 1 4.669 27h14.667zm0 2H4.669a1.67 1.67 0 0 0-1.667 1.667v14.667A1.67 1.67 0 0 0 4.669 47h14.667a1.67 1.67 0 0 0 1.667-1.667V30.667A1.67 1.67 0 0 0 19.335 29z" fill-rule="nonzero"/></g><path stroke="#444" stroke-width="2" d="M27.934 12h19.954"/><g fill="#444"><path d="M27.934 11a1 1 0 1 0 0 2 1 1 0 1 0 0-2z"/><path d="M19.335 1H4.669a3.67 3.67 0 0 0-3.667 3.667v14.667A3.67 3.67 0 0 0 4.669 23h14.667a3.67 3.67 0 0 0 3.667-3.667V4.667A3.67 3.67 0 0 0 19.335 1zm-1.047 7.728l-8.193 8.193a.68.68 0 0 1-.965 0l-3.414-3.414a.68.68 0 1 1 .965-.965l2.931 2.931 7.71-7.71a.68.68 0 1 1 .965.965z" fill-rule="nonzero"/></g></svg>
