<svg xmlns="http://www.w3.org/2000/svg" width="50" height="50"><g fill="none" fill-rule="evenodd" stroke="#444" stroke-linecap="round" stroke-width="4"><path d="M33.969 19.923C33.186 15.551 30.485 14 26.713 14c-3.963 0-11.819 5.429-11.819 14.808 0 3.972 3.213 7.192 7.176 7.192 4.696 0 6.517-3.8 7.785-5.833"/><path d="M31.36 26.519C29.855 30.167 30 33 30 33c0 2 .987 3 2.566 3C37.625 36 45 29.375 45 21.375v-.386C45 10.438 35.999 4 26.429 4 14.674 4 5.134 13.488 5.006 25.239 5.134 36.726 14.461 46 25.952 46 33.308 46 39 44 44 38m-8.001-23l-6.753 16.769"/></g></svg>