<svg height="50" width="50" xmlns="http://www.w3.org/2000/svg"><g fill="none" fill-rule="evenodd"><path d="m6 6 38 38" stroke="#444" stroke-linecap="round" stroke-linejoin="round" stroke-width="2"/><g fill="#444" fill-rule="nonzero"><path d="m27.085 28.399a3.985 3.985 0 0 0 1.915-3.399 4 4 0 0 0 -4-4c-1.442 0-2.695.77-3.399 1.915zm-6.069-3.241a3.984 3.984 0 0 0 3.826 3.826z"/><path d="m31.82 35.963-1.401-1.402a10.925 10.925 0 0 1 -5.419 1.439c-.39 0-.777-.036-1.165-.063-5.519-.584-9.835-5.265-9.835-10.937 0-1.971.528-3.817 1.439-5.419l-3.429-3.428c-5.651 3.467-9.508 7.891-9.769 8.195a1.003 1.003 0 0 0 0 1.304c.434.504 10.752 12.348 22.759 12.348.403 0 .8-.025 1.194-.062 2.162-.14 4.263-.624 6.245-1.356zm15.939-11.615c-.434-.504-10.751-12.348-22.759-12.348-4.025 0-7.857 1.333-11.193 3.121l1.379 1.379 1.414 1.414c2.019-2.39 5.033-3.914 8.4-3.914.39 0 .777.036 1.165.063 5.519.584 9.835 5.265 9.835 10.937 0 3.367-1.524 6.381-3.914 8.4l1.413 1.414.001-.001.939.939c7.537-3.46 13.007-9.737 13.32-10.101a1.002 1.002 0 0 0 0-1.303z"/></g></g></svg>