<svg xmlns="http://www.w3.org/2000/svg" width="50" height="50"><path fill="#444" d="M31.95 39.934a.997.997 0 01-.707-.293L10.345 18.745a1 1 0 010-1.414 15.665 15.665 0 0111.15-4.618c1.227 0 2.448.142 3.639.423l8.279-11.639C34.148.547 35.135 0 36.074 0a2.15 2.15 0 011.549.634l11.764 11.904c.438.441.655 1.044.606 1.697-.065.89-.629 1.811-1.505 2.464L36.81 24.66a15.767 15.767 0 01-4.152 14.98.998.998 0 01-.708.294zM16.525 27.753L.216 48.38a.999.999 0 001.404 1.404L22.233 33.46l-5.708-5.707z"/></svg>