<svg height="50" width="50" xmlns="http://www.w3.org/2000/svg"><g fill="none" fill-rule="evenodd" transform="translate(2.5 1)"><circle cx="32" cy="36" r="9" stroke="#444" stroke-linecap="round" stroke-width="2"/><path d="m38 42 7 7" stroke="#444" stroke-width="2"/><g fill="#444" fill-rule="nonzero"><path d="m21.001 0c12.561 0 20.999 4.654 20.999 8.999 0 4.347-8.438 9.001-20.999 9.001-12.562 0-21.001-4.654-21.001-9.001 0-4.345 8.439-8.999 21.001-8.999z"/><path d="m42 19.15c0 4.274-8.438 8.85-20.999 8.85-12.562 0-21.001-4.576-21.001-8.85v-5.541c3.673 3.753 11.588 6.391 21.001 6.391 9.411 0 17.327-2.637 20.999-6.391z"/><path d="m21.001 38c.755 0 1.493-.018 2.217-.05a9.02 9.02 0 0 1 -.218-1.95c0-2.4.946-4.576 2.477-6.189a53.63 53.63 0 0 1 -4.476.189c-9.413 0-17.328-2.338-21.001-6.09v5.286c0 4.273 8.439 8.804 21.001 8.804zm14.553-10.268a9.028 9.028 0 0 1 4.753 4.805c1.093-1.074 1.693-2.216 1.693-3.341v-5.286c-1.5 1.533-3.717 2.824-6.446 3.822z"/><path d="m41 36a9 9 0 0 1 -9 9c-3.564 0-6.634-2.076-8.092-5.08-.952.05-1.919.08-2.907.08-9.413 0-17.328-2.291-21.001-6.044v5.195c0 4.273 8.439 8.849 21.001 8.849 12.561 0 20.999-4.576 20.999-8.849v-5.195c-.322.329-.688.643-1.073.949.044.359.073.723.073 1.095z"/></g></g></svg>