<svg xmlns="http://www.w3.org/2000/svg" width="50" height="50" fill="none" fill-rule="evenodd"><path stroke="#444" stroke-width="2" d="M27.933 38h19.998"/><path d="M27.933 37a1 1 0 1 0 0 2 1 1 0 1 0 0-2z" fill="#444"/><g stroke="#444" stroke-width="2"><path d="M12 28C6.477 28 2 32.477 2 38s4.477 10 10 10 10-4.477 10-10-4.477-10-10-10z" stroke-linejoin="round"/><path d="M27.933 12h19.954"/></g><path d="M27.933 11a1 1 0 1 0 0 2 1 1 0 1 0 0-2z" fill="#444"/><path d="M12 2C6.477 2 2 6.477 2 12s4.477 10 10 10 10-4.477 10-10S17.523 2 12 2z" stroke="#444" stroke-width="2" stroke-linejoin="round"/><path d="M12 8a4 4 0 1 0 0 8 4 4 0 1 0 0-8z" fill="#444" fill-rule="nonzero"/></svg>
