<svg xmlns="http://www.w3.org/2000/svg" width="50" height="50"><path fill="#444" d="M39.031 47h-.047c-7.517-.245-16.321-7.53-22.388-13.6-6.072-6.071-13.357-14.879-13.594-22.362-.084-2.625 6.359-7.292 6.424-7.337 1.671-1.166 3.527-.753 4.289.302.515.714 5.397 8.116 5.928 8.955.552.869.471 2.166-.218 3.469-.377.72-1.636 2.933-2.225 3.965.634.906 2.32 3.127 5.798 6.604 3.477 3.477 5.697 5.164 6.606 5.801 1.032-.589 3.244-1.848 3.966-2.228 1.28-.679 2.571-.763 3.451-.225.896.549 8.275 5.455 8.955 5.931.572.4.94 1.089 1.011 1.89.071.809-.177 1.664-.699 2.409-.043.064-4.655 6.426-7.257 6.426z"/></svg>