<svg xmlns="http://www.w3.org/2000/svg" width="50" height="50"><g fill="#444"><path d="M41.258 27.348c-3.951-4.597-7.245-7.813-8.258-8.779V16a1 1 0 00-1-1h-3a1 1 0 00-1 1v2h-6v-2a1 1 0 00-1-1h-3a1 1 0 00-1 1v2.569c-1.013.966-4.307 4.182-8.258 8.779-3.109 3.62-3.751 7.249-3.742 9.656.007 1.871.972 7.899 1.013 8.155A1 1 0 007 46h5a1 1 0 001-1v-1h24v1a1 1 0 001 1h5a1 1 0 00.987-.841c.041-.255 1.009-6.272 1.013-8.157.005-2.412-.64-6.044-3.742-9.654zM21 35h-4v-2h4v2zm0-4h-4v-2h4v2zm0-4h-4v-2h4v2zm6 8h-4v-2h4v2zm0-4h-4v-2h4v2zm0-4h-4v-2h4v2zm6 8h-4v-2h4v2zm0-4h-4v-2h4v2zm0-4h-4v-2h4v2z"/><path d="M44.073 19a1.99 1.99 0 01-.29-.021c-.419-.063-1.891-.44-4.089-1.007-1.186-.306-2.259-.583-2.59-.653-.889-.188-1.648-.995-2.029-2.16-.161-.486-1.102-2.698-1.801-4.313-1.063-.253-4.008-.846-8.27-.846H25c-4.265 0-7.21.593-8.274.847-.699 1.614-1.64 3.825-1.802 4.314-.375 1.146-1.128 1.952-2.014 2.153-.324.074-1.322.328-2.446.616-2.307.588-3.847.979-4.233 1.043-1.136.19-2.561-.659-2.878-2.358-.011-.06-1.096-6.27.587-7.758C7.601 5.628 14.676 4 24.987 4H25c10.319 0 17.398 1.63 21.041 4.844l.016.015c1.686 1.488.601 7.7.59 7.762C46.355 18.155 45.143 19 44.073 19z"/></g></svg>