<svg xmlns="http://www.w3.org/2000/svg" width="50" height="50"><g fill="#444"><path d="M36 9.56c.001-.046.192-4.56 8.23-4.56a1 1 0 1 0 0-2c-5.518 0-8.058 1.974-9.229 3.753C33.831 4.977 31.291 3 25.77 3a1 1 0 0 0 0 2c7.937 0 8.223 4.384 8.23 4.538V40.93c0 .013-.023 1.258-1.183 2.425-1.368 1.377-3.805 2.105-7.048 2.105a1 1 0 1 0 0 2c3.842 0 6.69-.907 8.467-2.696.312-.314.553-.634.764-.949.211.315.452.635.764.949 1.776 1.789 4.625 2.696 8.467 2.696a1 1 0 1 0 0-2c-8.063 0-8.228-4.356-8.23-4.537L36 9.56z"/><path d="M48 12H36v26h12c1.103 0 2-.897 2-2V14c0-1.103-.897-2-2-2zm-17 0H2c-1.103 0-2 .897-2 2v22c0 1.103.897 2 2 2h29V12z"/></g></svg>