<svg xmlns="http://www.w3.org/2000/svg" width="50" height="50"><g fill="none" fill-rule="evenodd"><path stroke="#444" stroke-linecap="round" stroke-width="4" d="M31 19L19 31"/><path fill="#444" fill-rule="nonzero" d="M22.928 32.728a4.95 4.95 0 01-1.392 2.807l-5 5a5.006 5.006 0 01-7.072 0 5.006 5.006 0 010-7.071l5-5a4.958 4.958 0 012.807-1.393l3.593-3.593c-3.136-1.048-6.735-.335-9.228 2.157l-5 5c-3.509 3.509-3.509 9.219 0 12.728A8.976 8.976 0 0013 45.994a8.972 8.972 0 006.364-2.632l5-5c2.492-2.492 3.205-6.092 2.157-9.228l-3.593 3.594zM43.364 6.636c-3.51-3.508-9.219-3.509-12.729 0l-5 5c-2.492 2.492-3.205 6.092-2.157 9.228l3.593-3.593a4.95 4.95 0 011.392-2.807l5-5A4.992 4.992 0 0137 8.002c1.28 0 2.562.487 3.536 1.462a5.006 5.006 0 010 7.071l-5 5a4.958 4.958 0 01-2.808 1.393l-3.593 3.593a8.97 8.97 0 009.228-2.157l5-5c3.51-3.509 3.51-9.219.001-12.728z"/></g></svg>