<svg xmlns="http://www.w3.org/2000/svg" width="50" height="50"><g fill="none" fill-rule="evenodd"><path stroke="#444" stroke-linecap="round" stroke-width="2" d="M25 2.5c-12.15 0-22 9.85-22 22s9.85 22 22 22 22-9.85 22-22-9.85-22-22-22z"/><path fill="#444" fill-rule="nonzero" d="M25 47.5c-9.307 0-15.45-6.036-15.707-6.293a.998.998 0 01.042-1.453c1.7-1.517 3.625-1.582 5.665-2.254 2.038-.671 5.436-1.832 6-3-3.984-.51-8-1.35-8-3.521 0-.286.123-.559.337-.749.705-.625.776-3.369.839-5.791.167-6.438.419-16.167 10.844-16.917h.015c1.522 0 2.854.362 3.78 1.001 1.818.008 3.318.577 4.46 1.694 2.91 2.843 2.841 8.472 2.78 13.438-.032 2.614-.072 5.867.617 6.491.209.19.328.459.328.741 0 2.275-5.582 3.307-8 3.613.611 1.126 3.017 2.152 5.041 2.824 2.055.683 4.927.915 6.624 2.43a.997.997 0 01.042 1.453c-.257.257-6.4 6.293-15.707 6.293z"/></g></svg>