<svg xmlns="http://www.w3.org/2000/svg" width="50" height="50"><path fill="#444" d="M43 46H7a1 1 0 01-.999-1.055c.335-5.96 4.896-7.835 8.561-9.343 2.194-.902 4.858-2.177 5.431-3.559A.641.641 0 0020 32c-3.715-.422-8-.714-8-3 0-.281.119-.55.326-.739.781-.712 1.175-3.663 1.266-6.517C13.817 14.678 14.158 4 25.1 4c2.184 0 3.665.988 4.293 1.508 1.901.077 3.464.721 4.648 1.916 2.984 3.011 2.935 8.752 2.89 13.817-.025 2.905-.055 6.198.741 6.918.209.19.328.459.328.741 0 2.378-5.722 2.803-8 3.1l.005.101c.602 1.347 3.27 2.612 5.433 3.501 3.665 1.508 8.227 3.383 8.561 9.343a.994.994 0 01-.271.742c-.19.2-.453.313-.728.313z"/></svg>