<svg xmlns="http://www.w3.org/2000/svg" width="50" height="50"><g fill="#444"><path d="M30.645 7.271c2.156 3.472 1.492 8.205.726 11.185.424.898.584 1.935.454 3.012-.278 2.325-1.157 3.657-2.055 4.419-.409 1.515-1.129 3.046-1.935 4.129-.006.757-.007 1.407.041 2.166.544.612 2.378 1.337 3.759 1.883 3.061 1.209 7.323 2.909 9.297 7.021h9.13l-.063-1.06c-.312-5.209-4.444-6.84-7.766-8.15-1.844-.728-3.589-1.416-4.097-2.527-.076-.934-.069-1.664-.063-2.504l.002-.342c.796-.832 1.516-2.47 1.799-3.84.616-.347 1.348-1.147 1.57-2.994.109-.923-.146-1.646-.513-2.14.503-1.74 1.467-6.042-.266-8.829-.738-1.188-1.851-1.942-3.31-2.244-.835-1.014-2.387-1.565-4.455-1.565-1.417.026-2.643.266-3.715.666a7.552 7.552 0 011.46 1.714z"/><path d="M39.998 45.44a10.451 10.451 0 00-.143-1.198c-.018-.097-.041-.185-.061-.278a9.567 9.567 0 00-.21-.841c-.023-.077-.051-.151-.076-.228a8.576 8.576 0 00-.322-.82l-.059-.126a8.387 8.387 0 00-.474-.857c-1.784-2.798-5.006-4.08-7.758-5.168-2.339-.924-4.368-1.725-4.98-3.131-.096-1.134-.088-2.015-.079-3.027l.003-.479c.897-.917 1.821-2.865 2.157-4.602.704-.364 1.579-1.26 1.842-3.454.131-1.09-.187-1.929-.624-2.48.581-1.98 1.78-7.124-.27-10.423a5.441 5.441 0 00-1.71-1.738 5.954 5.954 0 00-1.009-.518 6.729 6.729 0 00-1.154-.338c-.944-1.193-2.754-1.843-5.184-1.843-3.681.068-6.375 1.193-8.007 3.343-1.933 2.548-2.292 6.41-1.069 11.484-.451.551-.783 1.401-.65 2.513.265 2.205 1.122 3.104 1.844 3.465.343 1.732 1.288 3.68 2.208 4.597l.002.467c.009 1.015.017 1.896-.08 3.032-.612 1.405-2.649 2.207-4.999 3.131C5.228 37.461.365 39.374.001 45.44l-.063 1.06h40.124l-.064-1.06z"/></g></svg>