<svg width="194" height="209" viewBox="0 0 194 209" fill="none" xmlns="http://www.w3.org/2000/svg">
<path d="M136.46 0.14097C136.46 0.14097 136.19 0.14097 135.68 0.13097C135.16 0.11097 134.4 0.0709701 133.39 0.14097C131.39 0.25097 128.4 0.63097 124.87 2.10097C121.38 3.57097 117.3 6.18097 114.05 10.531C112.44 12.701 111.09 15.301 110.27 18.261C109.48 21.221 109.21 24.501 109.59 27.881C110.02 31.251 111.05 34.731 112.94 37.931C113.88 39.531 114.99 41.081 116.34 42.441C117.65 43.851 119.2 45.091 120.94 46.041C122.68 46.981 124.67 47.581 126.71 47.491C128.73 47.421 130.82 46.711 132.3 45.241C133.79 43.771 134.53 41.621 134.53 39.481C134.54 37.321 133.79 35.171 132.5 33.351C129.9 29.701 125.71 27.251 121.24 25.921C116.73 24.611 111.78 24.571 107.04 25.721C104.68 26.331 102.37 27.241 100.2 28.441C98.0302 29.651 96.0602 31.231 94.3302 33.051C93.9202 33.531 93.4502 33.961 93.0902 34.471L91.9602 35.991C91.3002 37.071 90.6302 38.151 90.1202 39.331C89.0602 41.651 88.3202 44.141 87.9502 46.701C87.2802 51.821 87.9002 57.101 89.9702 61.701C91.9702 66.311 95.3802 70.271 99.6302 72.651C101.75 73.831 104.09 74.601 106.47 74.731C108.84 74.881 111.21 74.271 113.22 73.111C115.23 71.961 116.91 70.221 117.79 68.141C118.66 66.051 118.65 63.671 117.89 61.601C117.15 59.511 115.75 57.721 114.13 56.281C112.5 54.851 110.59 53.771 108.6 53.071C104.57 51.751 100.27 51.821 96.4302 52.861C92.5802 53.911 89.1402 55.891 86.4402 58.431C83.7502 60.981 81.8602 64.111 80.7202 67.301C78.4102 73.741 79.0002 80.271 80.9802 85.271C83.0202 90.311 86.2602 93.891 89.2202 96.261C92.2102 98.651 94.9202 99.941 96.7902 100.671C97.7302 101.031 98.4502 101.281 98.9502 101.421C99.4402 101.571 99.6902 101.671 99.6902 101.671C99.6902 101.671 99.4302 101.611 98.9302 101.481C98.4302 101.361 97.7002 101.121 96.7402 100.781C94.8602 100.081 92.1102 98.811 89.0802 96.431C86.0802 94.071 82.7902 90.471 80.7002 85.391C78.6702 80.341 78.0402 73.731 80.3602 67.191C81.5102 63.941 83.4202 60.761 86.1502 58.151C88.8902 55.561 92.3802 53.531 96.3002 52.461C100.21 51.401 104.59 51.311 108.74 52.651C110.79 53.371 112.75 54.471 114.43 55.941C116.1 57.411 117.55 59.261 118.33 61.451C119.12 63.621 119.15 66.131 118.23 68.341C117.3 70.551 115.55 72.351 113.46 73.561C111.37 74.761 108.9 75.401 106.44 75.251C103.98 75.121 101.56 74.331 99.3802 73.111C95.0202 70.671 91.5402 66.621 89.5002 61.921C87.3902 57.221 86.7602 51.851 87.4402 46.641C87.8202 44.031 88.5702 41.491 89.6602 39.131C90.1802 37.931 90.8702 36.831 91.5402 35.721L92.6902 34.161C93.0602 33.631 93.5402 33.191 93.9602 32.711C95.7302 30.851 97.7502 29.241 99.9602 28.011C102.17 26.791 104.52 25.871 106.93 25.241C111.76 24.071 116.8 24.111 121.4 25.451C125.96 26.811 130.23 29.301 132.92 33.081C134.25 34.961 135.04 37.221 135.02 39.481C135.02 41.731 134.24 44.001 132.64 45.571C131.05 47.141 128.85 47.881 126.74 47.941C124.61 48.021 122.53 47.391 120.75 46.421C118.96 45.441 117.38 44.161 116.05 42.731C114.67 41.331 113.55 39.751 112.6 38.131C110.69 34.871 109.66 31.331 109.24 27.921C108.87 24.491 109.15 21.171 109.97 18.171C110.81 15.181 112.19 12.541 113.83 10.351C117.14 5.96097 121.28 3.36097 124.81 1.90097C128.38 0.44097 131.4 0.10097 133.4 0.0209701C134.41 -0.0290299 135.18 0.0209701 135.7 0.0609701C136.22 0.0909701 136.48 0.12097 136.48 0.12097L136.46 0.14097Z" fill="#263238"/>
<path d="M169.858 100.203H29.6484V208.343H169.858V100.203Z" fill="#BBBBBB"/>
<path d="M29.6484 100.195L55.5384 124.345H193.378L169.858 100.195H29.6484Z" fill="#BBBBBB"/>
<path d="M29.6484 100.198C32.1784 100.198 90.0884 100.088 169.858 99.9375H169.968L170.048 100.018C177.558 107.728 185.358 115.738 193.328 123.918C193.408 123.998 193.488 124.088 193.568 124.168L193.998 124.607H193.378C136.858 124.567 86.6984 124.528 55.5484 124.507H55.4884L55.4484 124.467C39.2484 109.217 30.5084 100.998 29.6584 100.198C30.5184 100.988 39.3184 109.138 55.6584 124.238L55.5484 124.198C86.6984 124.178 136.858 124.137 193.378 124.097L193.188 124.537C193.108 124.457 193.028 124.377 192.948 124.287C184.978 116.097 177.188 108.088 169.678 100.378L169.858 100.457C90.0884 100.307 32.1784 100.208 29.6484 100.198Z" fill="#263238"/>
<path d="M71.7589 150.062C70.2789 150.062 68.9189 151.402 68.8989 152.882C68.8689 154.362 70.1789 155.742 71.6589 155.802C73.1389 155.852 74.5489 154.572 74.6289 153.092C74.7089 151.612 73.4589 150.182 71.9789 150.072" fill="#263238"/>
<path d="M104.868 150.062C103.388 150.062 102.028 151.402 102.008 152.882C101.978 154.362 103.288 155.742 104.768 155.802C106.248 155.852 107.658 154.572 107.738 153.092C107.818 151.612 106.568 150.182 105.088 150.072" fill="#263238"/>
<path d="M105.08 175.953C104.93 176.013 104.71 173.243 102.3 169.733C101.12 167.993 99.3497 166.143 96.9997 164.653C94.6697 163.153 91.6997 162.083 88.4997 161.963C85.2997 161.903 82.2797 162.813 79.8697 164.183C77.4397 165.543 75.5797 167.293 74.2997 168.963C71.7097 172.333 71.3297 175.083 71.1897 175.013C71.1697 175.013 71.1997 174.843 71.2697 174.543C71.3597 174.243 71.4197 173.773 71.6397 173.213C71.9997 172.073 72.7397 170.473 74.0097 168.733C75.2697 166.993 77.1597 165.173 79.6297 163.753C82.0897 162.323 85.1997 161.363 88.5097 161.433C91.8197 161.553 94.8697 162.683 97.2497 164.243C99.6397 165.803 101.43 167.723 102.59 169.523C103.77 171.323 104.41 172.963 104.71 174.123C104.9 174.693 104.94 175.163 105 175.473C105.05 175.783 105.07 175.943 105.06 175.953H105.08Z" fill="#263238"/>
<path opacity="0.5" d="M29.959 101.391L54.759 132.821H169.859V124.351H55.539L29.959 101.391Z" fill="black"/>
<path d="M142.209 208.09C142.069 208.09 141.949 189.28 141.949 166.08C141.949 142.88 142.069 124.07 142.209 124.07C142.349 124.07 142.469 142.88 142.469 166.08C142.469 189.28 142.349 208.09 142.209 208.09Z" fill="#263238"/>
<path d="M164.219 183.578H151.859V197.548H164.219V183.578Z" fill="#F5F5F5"/>
<path d="M29.6494 100.203L0.859375 124.353H29.6494V100.203Z" fill="#BBBBBB"/>
<g opacity="0.4">
<path d="M29.6494 100.203L0.859375 124.353H29.6494V100.203Z" fill="black"/>
</g>
</svg>
