<svg width="32" height="32" viewBox="0 0 32 32" fill="none" xmlns="http://www.w3.org/2000/svg">
<path d="M25.1996 12.5569C25.1996 12.5569 25.1963 12.5469 25.193 12.5403C25.1565 12.4338 25.1133 12.2641 25.0735 12.0546C25.0735 12.0512 25.0735 12.0479 25.0735 12.0446C24.8877 11.3826 24.6288 10.7705 24.297 10.1983C24.2937 10.1983 24.2937 10.1916 24.2903 10.1883C24.2605 9.98869 24.2372 9.80905 24.2207 9.666C24.2173 9.63273 24.214 9.60279 24.214 9.57618C24.2074 9.52628 24.2041 9.48303 24.2007 9.44644C24.1908 9.28011 24.1443 9.13706 24.0647 8.99734C23.6698 8.2821 23.0459 7.86627 22.2793 7.64671C22.2096 7.62675 22.1366 7.61011 22.0669 7.59348C22.0304 7.5835 21.9906 7.57685 21.9541 7.57019C21.9043 7.56021 21.8512 7.55023 21.8014 7.54358C21.7384 7.53027 21.6753 7.52362 21.609 7.51364C21.5459 7.50699 21.4795 7.50033 21.4132 7.49701C21.1344 7.4837 20.9021 7.58017 20.713 7.78643C20.6499 7.85961 20.5902 7.92947 20.5238 8.00266C20.3877 8.15902 20.2484 8.30872 20.1189 8.46174C19.8269 8.79441 19.8335 9.167 20.0493 9.53959C20.3612 10.0752 20.8689 10.2016 21.4165 10.2548C21.5393 10.2715 21.6554 10.2249 21.7716 10.175C21.9475 10.0985 22.0205 10.145 22.0304 10.3313C22.0371 10.4311 22.0371 10.5343 22.0404 10.6374C22.0636 11.0067 21.5127 12.9328 21.3501 13.2621C21.3169 13.3553 21.2572 13.4684 21.1908 13.5649C21.1709 13.5948 21.1477 13.6214 21.1278 13.6447C21.0515 13.4983 20.9419 13.3619 20.8092 13.2389C20.693 13.1291 20.557 13.0293 20.4043 12.9461C19.9762 12.6966 19.4254 12.5502 18.8181 12.5502C18.0183 12.5502 17.3048 12.8097 16.8568 13.2156H16.8502C15.2473 12.0346 13.0704 12.0279 11.202 13.7212C11.1622 13.7578 11.1224 13.7944 11.0826 13.8377H11.0162C11.285 12.5802 11.8757 11.5955 12.785 10.8802C13.6942 10.165 14.8491 9.80905 16.2528 9.80905C17.6566 9.80905 18.7351 10.1517 19.5714 10.8436C20.0327 11.2229 20.3911 11.6953 20.6466 12.2641C20.7395 11.9448 20.8523 11.5389 20.9353 11.1963C20.3612 11.0965 19.651 10.8303 19.1931 10.0452C18.7451 9.28676 18.8114 8.44844 19.3656 7.80971C19.4586 7.69661 19.5647 7.5835 19.6676 7.46707L19.9696 7.12774C20.0161 7.07452 20.0658 7.02462 20.1123 6.98137C20.1588 6.94145 20.1953 6.91151 20.2285 6.8849C20.2484 6.86826 20.2915 6.835 20.338 6.80506L20.3944 6.76846C19.2196 6.25283 17.8988 6 16.4354 6C13.3392 6 10.9233 6.93812 9.19099 8.81104C7.45208 10.684 6.58594 13.0858 6.58594 16.02C6.58594 18.9541 7.5284 21.4724 9.4067 23.2821C11.2883 25.0951 13.7772 26 16.8767 26C19.9762 26 22.714 24.6959 24.6587 22.0812L22.0769 19.5296C20.8225 21.2329 19.1134 22.0812 16.9497 22.0812C15.3037 22.0812 13.9365 21.6886 12.8547 20.9002C11.7728 20.1118 11.1489 18.9774 10.9764 17.497H22.4552C22.5149 17.487 22.5747 17.4904 22.6344 17.497C22.6543 17.497 22.6709 17.497 22.6908 17.497H24.1045C24.5923 17.497 25.047 17.2176 25.2394 16.7685C25.2394 16.7685 25.2394 16.7618 25.2428 16.7618C25.3987 16.3892 25.5082 16.0133 25.5647 15.6574C25.5647 15.6307 25.568 15.6075 25.5713 15.5808L25.5779 15.5309C25.5945 15.3945 25.6078 15.2715 25.6144 15.1583C25.6178 15.0951 25.6211 15.0353 25.6211 14.9754C25.6244 14.9155 25.6244 14.8556 25.6244 14.7957C25.6211 14.0173 25.4253 13.1723 25.1996 12.5569ZM19.5581 12.8663C19.6543 12.9095 19.5448 12.9261 19.5581 12.8663Z" fill="black"/>
</svg>
