<svg width="24" height="26" viewBox="0 0 24 26" fill="none" xmlns="http://www.w3.org/2000/svg">
<g clip-path="url(#clip0_25996_149172)">
<mask id="mask0_25996_149172" style="mask-type:luminance" maskUnits="userSpaceOnUse" x="0" y="1" width="24" height="24">
<path d="M24 1H0V25H24V1Z" fill="white"/>
</mask>
<g mask="url(#mask0_25996_149172)">
<path d="M23.3918 8.82809C24.2027 8.01719 24.2027 6.70929 23.3918 5.89839L22.921 5.42755C23.5749 4.48586 23.4703 3.20411 22.6594 2.36706C22.2147 1.92237 21.6131 1.66079 20.9591 1.66079C20.4621 1.66079 19.9913 1.81774 19.5989 2.07932L19.1281 1.60847C18.7357 1.2161 18.2125 1.00684 17.6632 1.00684C17.1139 1.00684 16.5907 1.2161 16.1984 1.60847C15.8322 1.97468 15.649 2.44553 15.5967 2.91637C15.2305 2.73327 14.8381 2.62864 14.4196 2.62864C13.7134 2.62864 13.0856 2.89022 12.5886 3.38722C12.0916 3.88422 11.83 4.53817 11.83 5.21828C11.83 5.92455 12.0916 6.55234 12.5886 7.04934L14.0272 8.48804L7.5139 14.9752L6.0752 13.5365C5.5782 13.0395 4.92425 12.778 4.24414 12.778C3.53787 12.778 2.91008 13.0395 2.41308 13.5365C1.60218 14.3474 1.44523 15.5769 1.94223 16.5447C1.44523 16.5709 0.974387 16.7801 0.608174 17.1464C-0.202725 17.9573 -0.202725 19.2913 0.608174 20.1022L1.10518 20.5731C0.817439 20.9654 0.686648 21.4363 0.686648 21.9333C0.686648 22.5611 0.948229 23.1627 1.39292 23.6335C1.86376 24.1044 2.46539 24.3398 3.09319 24.3398C3.56403 24.3398 4.03488 24.1829 4.45341 23.9213L4.92425 24.3921C5.31662 24.7845 5.83978 24.9938 6.3891 24.9938C6.93842 24.9938 7.46158 24.7845 7.85395 24.3921C8.22016 24.0259 8.40327 23.5551 8.45559 23.0842C8.8218 23.2673 9.21417 23.372 9.6327 23.372C10.3128 23.372 10.9668 23.1104 11.4638 22.6134C12.4839 21.5932 12.4839 19.9453 11.4638 18.9513L10.0251 17.5126L16.5123 11.0254L17.951 12.4641C18.448 12.9611 19.1019 13.2226 19.782 13.2226C20.4883 13.2226 21.1161 12.9611 21.6131 12.4641C22.4763 11.6009 22.5809 10.2929 22.0054 9.29893C22.0578 9.29893 22.1101 9.29893 22.1624 9.29893C22.6856 9.29893 23.1041 9.14199 23.3918 8.82809ZM22.0316 2.96869C22.5286 3.46569 22.6071 4.19812 22.2932 4.79975L20.2267 2.73327C20.8022 2.39321 21.5608 2.47169 22.0316 2.96869ZM1.99455 23.0058C1.49755 22.5088 1.41907 21.7763 1.73297 21.1747L3.79945 23.2412C3.22398 23.5812 2.46539 23.5028 1.99455 23.0058ZM7.22616 23.7643C6.75531 24.2352 5.97057 24.2352 5.49973 23.7643L1.23597 19.5006C0.765123 19.0036 0.765123 18.245 1.23597 17.7741C1.47139 17.5387 1.78529 17.4079 2.09918 17.4079C2.41308 17.4079 2.72698 17.5387 2.9624 17.7741L7.22616 22.0379C7.697 22.5088 7.697 23.2935 7.22616 23.7643ZM10.836 19.5267C11.5161 20.2068 11.5161 21.3055 10.836 21.9856C10.4959 22.3256 10.0774 22.4826 9.60654 22.4826C9.13569 22.4826 8.71717 22.2995 8.37711 21.9856L3.01471 16.6232C2.36076 15.9431 2.36076 14.8183 3.01471 14.1643C3.35477 13.8243 3.7733 13.6673 4.24414 13.6673C4.71499 13.6673 5.13351 13.8504 5.47357 14.1643L9.10954 17.8003L10.836 19.5267ZM9.42343 16.8586L8.14169 15.5769L14.6027 9.11583L15.8845 10.3976L9.42343 16.8586ZM20.9591 11.784C20.6191 12.124 20.2005 12.281 19.7297 12.281C19.2589 12.281 18.8403 12.0979 18.5003 11.784L14.9166 8.2003L13.1902 6.44771C12.8501 6.13381 12.667 5.68913 12.667 5.21828C12.667 4.74744 12.8501 4.32891 13.164 3.98885C13.5041 3.6488 13.9226 3.49185 14.3935 3.49185C14.8643 3.49185 15.2828 3.67496 15.6229 3.98885L19.4158 7.78177L20.0436 8.40956L20.9591 9.32509C21.6392 10.0052 21.6392 11.1038 20.9591 11.784ZM20.6975 7.83408L20.1221 7.28477L16.8 3.93654C16.303 3.46569 16.303 2.68095 16.8 2.21011C17.0354 1.97468 17.3493 1.84389 17.6632 1.84389C18.0033 1.84389 18.291 1.97468 18.5264 2.21011L19.285 2.96869L22.0578 5.74144L22.8163 6.50003C23.2872 6.97087 23.2872 7.75561 22.8163 8.22646C22.6332 8.40956 22.3717 8.43572 22.1886 8.43572C21.6654 8.43572 21.0638 8.2003 20.6975 7.83408Z" fill="#87AA14"/>
</g>
</g>
<defs>
<clipPath id="clip0_25996_149172">
<rect width="24" height="24" fill="white" transform="translate(0 1)"/>
</clipPath>
</defs>
</svg>
