<svg width="275" height="43" viewBox="0 0 275 43" fill="none" xmlns="http://www.w3.org/2000/svg">
<g clip-path="url(#clip0_25996_149442)">
<circle cx="19.8908" cy="20.9567" r="19.8908" fill="white"/>
<path d="M30.9457 20.2917C30.9457 20.9923 30.9021 21.5616 30.7714 22.2622H14.4806C14.829 25.8529 16.6149 27.8234 20.4916 27.8234C23.5407 27.8234 25.5009 26.2032 26.2414 23.751L30.7714 25.1961C29.2469 30.1879 25.5009 32.5963 20.361 32.5963C13.7836 32.5963 8.99219 28.6553 8.99219 21.1237C8.99219 13.5483 14.045 9.16943 20.4481 9.16943C26.8076 9.16943 30.9457 13.3293 30.9457 20.2917ZM20.4045 13.811C17.8346 13.811 15.6566 15.1247 14.7855 17.9271H25.5009C25.0653 15.3436 23.1923 13.811 20.4045 13.811Z" fill="black"/>
</g>
<path d="M264.201 35.6851C257.871 35.6851 253.664 31.5687 253.664 25.2777C253.664 19.0255 257.832 14.9092 264.201 14.9092C270.531 14.9092 274.738 19.0255 274.738 25.2777C274.738 31.5687 270.531 35.6851 264.201 35.6851ZM264.201 31.2192C267.543 31.2192 269.706 28.9669 269.706 25.2777C269.706 21.6662 267.504 19.375 264.201 19.375C260.899 19.375 258.697 21.6662 258.697 25.2777C258.697 28.9281 260.899 31.2192 264.201 31.2192Z" fill="white"/>
<path d="M245.127 18.3648V7.02539H250.042V35.335H245.127V32.073C243.869 34.2865 241.51 35.6845 238.6 35.6845C232.939 35.6845 229.164 31.6847 229.164 25.2771C229.164 19.0638 232.821 14.9086 238.64 14.9086C241.667 14.9086 243.908 16.1513 245.127 18.3648ZM239.662 31.2575C243.004 31.2575 245.245 28.9663 245.245 25.2771C245.245 21.7045 243.043 19.3356 239.662 19.3356C236.359 19.3356 234.197 21.6268 234.197 25.2771C234.197 28.8886 236.281 31.2575 239.662 31.2575Z" fill="white"/>
<path d="M218.256 14.9092C222.974 14.9092 225.765 17.744 225.765 22.637V35.3356H220.851V24.1904C220.851 20.8507 219.16 19.375 216.526 19.375C213.105 19.375 211.454 21.8992 211.454 25.2777V35.3356H206.539V15.2587H211.139L211.297 18.7149C212.712 16.346 214.914 14.9092 218.256 14.9092Z" fill="white"/>
<path d="M192.357 35.6851C186.027 35.6851 181.82 31.5687 181.82 25.2777C181.82 19.0255 185.988 14.9092 192.357 14.9092C198.688 14.9092 202.895 19.0255 202.895 25.2777C202.895 31.5687 198.688 35.6851 192.357 35.6851ZM192.357 31.2192C195.7 31.2192 197.862 28.9669 197.862 25.2777C197.862 21.6662 195.66 19.375 192.357 19.375C189.055 19.375 186.853 21.6662 186.853 25.2777C186.853 28.9281 189.055 31.2192 192.357 31.2192Z" fill="white"/>
<path d="M171.155 14.9092C174.851 14.9092 178.468 16.6955 178.468 22.4817V35.3356H173.593V23.103C173.593 20.6954 171.745 19.375 169.622 19.375C166.594 19.375 164.707 21.0837 164.707 24.3845V35.3356H159.832V23.103C159.832 20.6954 158.023 19.375 155.861 19.375C152.833 19.375 150.946 21.0837 150.946 24.3845V35.3356H146.031V15.2587H150.513L150.592 18.5207C151.89 16.4237 154.17 14.9092 157.315 14.9092C160.028 14.9092 162.781 15.9188 163.921 19.0255C165.14 16.4625 167.459 14.9092 171.155 14.9092Z" fill="white"/>
<path d="M131.842 35.6851C125.512 35.6851 121.305 31.5687 121.305 25.2777C121.305 19.0255 125.472 14.9092 131.842 14.9092C138.172 14.9092 142.379 19.0255 142.379 25.2777C142.379 31.5687 138.172 35.6851 131.842 35.6851ZM131.842 31.2192C135.184 31.2192 137.346 28.9669 137.346 25.2777C137.346 21.6662 135.145 19.375 131.842 19.375C128.539 19.375 126.337 21.6662 126.337 25.2777C126.337 28.9281 128.539 31.2192 131.842 31.2192Z" fill="white"/>
<path d="M112.776 18.3648V7.02539H117.69V35.335H112.776V32.073C111.517 34.2865 109.158 35.6845 106.249 35.6845C100.587 35.6845 96.8125 31.6847 96.8125 25.2771C96.8125 19.0638 100.469 14.9086 106.288 14.9086C109.316 14.9086 111.557 16.1513 112.776 18.3648ZM107.31 31.2575C110.652 31.2575 112.893 28.9663 112.893 25.2771C112.893 21.7045 110.692 19.3356 107.31 19.3356C104.008 19.3356 101.845 21.6268 101.845 25.2771C101.845 28.8886 103.929 31.2575 107.31 31.2575Z" fill="white"/>
<path d="M85.9042 14.9092C90.6223 14.9092 93.4139 17.744 93.4139 22.637V35.3356H88.4992V24.1904C88.4992 20.8507 86.8085 19.375 84.1742 19.375C80.7536 19.375 79.1022 21.8992 79.1022 25.2777V35.3356H74.1875V15.2587H78.7877L78.945 18.7149C80.3604 16.346 82.5622 14.9092 85.9042 14.9092Z" fill="white"/>
<path d="M70.2459 24.7729C70.2459 25.3942 70.2065 25.8991 70.0886 26.5204H55.3837C55.6983 29.7047 57.3103 31.4522 60.8096 31.4522C63.5618 31.4522 65.3311 30.0154 65.9995 27.8407L70.0886 29.1222C68.7125 33.5493 65.3311 35.6851 60.6916 35.6851C54.7546 35.6851 50.4297 32.1901 50.4297 25.5107C50.4297 18.7925 54.9906 14.9092 60.7703 14.9092C66.5107 14.9092 70.2459 18.5984 70.2459 24.7729ZM60.731 19.0255C58.4112 19.0255 56.4453 20.1905 55.659 22.6759H65.3311C64.938 20.3847 63.2473 19.0255 60.731 19.0255Z" fill="white"/>
<defs>
<clipPath id="clip0_25996_149442">
<rect y="1.06592" width="41.0889" height="41.0889" rx="1.63166" fill="white"/>
</clipPath>
</defs>
</svg>
